<svg xmlns="http://www.w3.org/2000/svg" viewBox="0 0 89.47 100" width="89.47" height="100">
  <polygon points="44.74,6.14 82.72,28.07 82.72,71.93 44.74,93.86 6.75,71.93 6.75,28.07 44.74,6.14" fill="#0b2531"/>
  <polygon points="44.74,10.53 78.92,30.26 78.92,69.74 44.74,89.47 10.55,69.74 10.55,30.26 44.74,10.53" fill="#2c5f7c"/>
  <polygon points="17.54,69.82 17.82,69.77 18.09,69.72 18.36,69.66 18.64,69.59 18.91,69.51 19.18,69.42 19.46,69.32 19.73,69.22 20.00,69.10 20.28,68.97 20.55,68.82 20.82,68.67 21.10,68.49 21.37,68.30 21.64,68.10 21.92,67.87 22.19,67.63 22.46,67.36 22.74,67.07 23.01,66.77 23.28,66.43 23.56,66.08 23.83,65.70 24.10,65.29 24.38,64.86 24.65,64.40 24.92,63.91 25.20,63.39 25.47,62.85 25.74,62.28 26.02,61.68 26.29,61.05 26.56,60.40 26.84,59.72 27.11,59.01 27.38,58.29 27.66,57.54 27.93,56.76 28.20,55.97 28.48,55.17 28.75,54.35 29.02,53.51 29.30,52.67 29.57,51.82 29.84,50.97 30.12,50.12 30.39,49.27 30.66,48.43 30.94,47.60 31.21,46.78 31.48,45.99 31.76,45.21 32.03,44.46 32.30,43.75 32.58,43.06 32.85,42.42 33.12,41.81 33.40,41.25 33.67,40.73 33.94,40.27 34.21,39.85 34.49,39.50 34.76,39.20 35.03,38.96 35.31,38.77 35.58,38.65 35.85,38.60 36.13,38.60 36.40,38.67 36.67,38.79 36.95,38.98 37.22,39.23 37.49,39.53 37.77,39.89 38.04,40.31 38.31,40.77 38.59,41.28 38.86,41.84 39.13,42.44 39.41,43.07 39.68,43.74 39.95,44.43 40.23,45.15 40.50,45.89 40.77,46.64 41.05,47.40 41.32,48.17 41.59,48.94 41.87,49.71 42.14,50.46 42.41,51.20 42.69,51.92 42.96,52.62 43.23,53.29 43.51,53.93 43.78,54.53 44.05,55.08 44.33,55.60 44.60,56.06 44.87,56.47 45.15,56.83 45.42,57.13 45.69,57.37 45.97,57.54 46.24,57.65 46.51,57.70 46.79,57.68 47.06,57.59 47.33,57.43 47.61,57.21 47.88,56.93 48.15,56.58 48.43,56.17 48.70,55.71 48.97,55.19 49.25,54.62 49.52,54.01 49.79,53.36 50.07,52.68 50.34,51.96 50.61,51.23 50.89,50.49 51.16,49.74 51.43,48.99 51.71,48.25 51.98,47.53 52.25,46.83 52.53,46.17 52.80,45.54 53.07,44.97 53.35,44.44 53.62,43.98 53.89,43.58 54.17,43.26 54.44,43.00 54.71,42.83 54.99,42.74 55.26,42.73 55.53,42.80 55.81,42.95 56.08,43.19 56.35,43.51 56.63,43.91 56.90,44.38 57.17,44.92 57.45,45.53 57.72,46.20 57.99,46.92 58.27,47.70 58.54,48.52 58.81,49.37 59.08,50.26 59.36,51.16 59.63,52.09 59.90,53.02 60.18,53.96 60.45,54.89 60.72,55.82 61.00,56.74 61.27,57.63 61.54,58.51 61.82,59.35 62.09,60.17 62.36,60.96 62.64,61.71 62.91,62.42 63.18,63.10 63.46,63.74 63.73,64.34 64.00,64.90 64.28,65.42 64.55,65.91 64.82,66.35 65.10,66.77 65.37,67.14 65.64,67.49 65.92,67.80 66.19,68.08 66.46,68.34 66.74,68.57 67.01,68.77 67.28,68.95 67.56,69.12 67.83,69.26 68.10,69.39 68.38,69.50 68.65,69.60 68.92,69.68 69.20,69.75 69.47,69.82 69.74,69.87 70.02,69.92 70.29,69.96 70.56,70.00 70.84,70.03 71.11,70.05 71.38,70.07 71.66,70.09 71.93,70.11 71.93,70.18 71.66,70.18 71.38,70.18 71.11,70.18 70.84,70.18 70.56,70.18 70.29,70.18 70.02,70.18 69.74,70.18 69.47,70.18 69.20,70.18 68.92,70.18 68.65,70.18 68.38,70.18 68.10,70.18 67.83,70.18 67.56,70.18 67.28,70.18 67.01,70.18 66.74,70.18 66.46,70.18 66.19,70.18 65.92,70.18 65.64,70.18 65.37,70.18 65.10,70.18 64.82,70.18 64.55,70.18 64.28,70.18 64.00,70.18 63.73,70.18 63.46,70.18 63.18,70.18 62.91,70.18 62.64,70.18 62.36,70.18 62.09,70.18 61.82,70.18 61.54,70.18 61.27,70.18 61.00,70.18 60.72,70.18 60.45,70.18 60.18,70.18 59.90,70.18 59.63,70.18 59.36,70.18 59.08,70.18 58.81,70.18 58.54,70.18 58.27,70.18 57.99,70.18 57.72,70.18 57.45,70.18 57.17,70.18 56.90,70.18 56.63,70.18 56.35,70.18 56.08,70.18 55.81,70.18 55.53,70.18 55.26,70.18 54.99,70.18 54.71,70.18 54.44,70.18 54.17,70.18 53.89,70.18 53.62,70.18 53.35,70.18 53.07,70.18 52.80,70.18 52.53,70.18 52.25,70.18 51.98,70.18 51.71,70.18 51.43,70.18 51.16,70.18 50.89,70.18 50.61,70.18 50.34,70.18 50.07,70.18 49.79,70.18 49.52,70.18 49.25,70.18 48.97,70.18 48.70,70.18 48.43,70.18 48.15,70.18 47.88,70.18 47.61,70.18 47.33,70.18 47.06,70.18 46.79,70.18 46.51,70.18 46.24,70.18 45.97,70.18 45.69,70.18 45.42,70.18 45.15,70.18 44.87,70.18 44.60,70.18 44.33,70.18 44.05,70.18 43.78,70.18 43.51,70.18 43.23,70.18 42.96,70.18 42.69,70.18 42.41,70.18 42.14,70.18 41.87,70.18 41.59,70.18 41.32,70.18 41.05,70.18 40.77,70.18 40.50,70.18 40.23,70.18 39.95,70.18 39.68,70.18 39.41,70.18 39.13,70.18 38.86,70.18 38.59,70.18 38.31,70.18 38.04,70.18 37.77,70.18 37.49,70.18 37.22,70.18 36.95,70.18 36.67,70.18 36.40,70.18 36.13,70.18 35.85,70.18 35.58,70.18 35.31,70.18 35.03,70.18 34.76,70.18 34.49,70.18 34.21,70.18 33.94,70.18 33.67,70.18 33.40,70.18 33.12,70.18 32.85,70.18 32.58,70.18 32.30,70.18 32.03,70.18 31.76,70.18 31.48,70.18 31.21,70.18 30.94,70.18 30.66,70.18 30.39,70.18 30.12,70.18 29.84,70.18 29.57,70.18 29.30,70.18 29.02,70.18 28.75,70.18 28.48,70.18 28.20,70.18 27.93,70.18 27.66,70.18 27.38,70.18 27.11,70.18 26.84,70.18 26.56,70.18 26.29,70.18 26.02,70.18 25.74,70.18 25.47,70.18 25.20,70.18 24.92,70.18 24.65,70.18 24.38,70.18 24.10,70.18 23.83,70.18 23.56,70.18 23.28,70.18 23.01,70.18 22.74,70.18 22.46,70.18 22.19,70.18 21.92,70.18 21.64,70.18 21.37,70.18 21.10,70.18 20.82,70.18 20.55,70.18 20.28,70.18 20.00,70.18 19.73,70.18 19.46,70.18 19.18,70.18 18.91,70.18 18.64,70.18 18.36,70.18 18.09,70.18 17.82,70.18 17.54,70.18" fill="#8fd7ca" fill-opacity="0.32"/>
  <polyline points="17.54,69.82 17.82,69.77 18.09,69.72 18.36,69.66 18.64,69.59 18.91,69.51 19.18,69.42 19.46,69.32 19.73,69.22 20.00,69.10 20.28,68.97 20.55,68.82 20.82,68.67 21.10,68.49 21.37,68.30 21.64,68.10 21.92,67.87 22.19,67.63 22.46,67.36 22.74,67.07 23.01,66.77 23.28,66.43 23.56,66.08 23.83,65.70 24.10,65.29 24.38,64.86 24.65,64.40 24.92,63.91 25.20,63.39 25.47,62.85 25.74,62.28 26.02,61.68 26.29,61.05 26.56,60.40 26.84,59.72 27.11,59.01 27.38,58.29 27.66,57.54 27.93,56.76 28.20,55.97 28.48,55.17 28.75,54.35 29.02,53.51 29.30,52.67 29.57,51.82 29.84,50.97 30.12,50.12 30.39,49.27 30.66,48.43 30.94,47.60 31.21,46.78 31.48,45.99 31.76,45.21 32.03,44.46 32.30,43.75 32.58,43.06 32.85,42.42 33.12,41.81 33.40,41.25 33.67,40.73 33.94,40.27 34.21,39.85 34.49,39.50 34.76,39.20 35.03,38.96 35.31,38.77 35.58,38.65 35.85,38.60 36.13,38.60 36.40,38.67 36.67,38.79 36.95,38.98 37.22,39.23 37.49,39.53 37.77,39.89 38.04,40.31 38.31,40.77 38.59,41.28 38.86,41.84 39.13,42.44 39.41,43.07 39.68,43.74 39.95,44.43 40.23,45.15 40.50,45.89 40.77,46.64 41.05,47.40 41.32,48.17 41.59,48.94 41.87,49.71 42.14,50.46 42.41,51.20 42.69,51.92 42.96,52.62 43.23,53.29 43.51,53.93 43.78,54.53 44.05,55.08 44.33,55.60 44.60,56.06 44.87,56.47 45.15,56.83 45.42,57.13 45.69,57.37 45.97,57.54 46.24,57.65 46.51,57.70 46.79,57.68 47.06,57.59 47.33,57.43 47.61,57.21 47.88,56.93 48.15,56.58 48.43,56.17 48.70,55.71 48.97,55.19 49.25,54.62 49.52,54.01 49.79,53.36 50.07,52.68 50.34,51.96 50.61,51.23 50.89,50.49 51.16,49.74 51.43,48.99 51.71,48.25 51.98,47.53 52.25,46.83 52.53,46.17 52.80,45.54 53.07,44.97 53.35,44.44 53.62,43.98 53.89,43.58 54.17,43.26 54.44,43.00 54.71,42.83 54.99,42.74 55.26,42.73 55.53,42.80 55.81,42.95 56.08,43.19 56.35,43.51 56.63,43.91 56.90,44.38 57.17,44.92 57.45,45.53 57.72,46.20 57.99,46.92 58.27,47.70 58.54,48.52 58.81,49.37 59.08,50.26 59.36,51.16 59.63,52.09 59.90,53.02 60.18,53.96 60.45,54.89 60.72,55.82 61.00,56.74 61.27,57.63 61.54,58.51 61.82,59.35 62.09,60.17 62.36,60.96 62.64,61.71 62.91,62.42 63.18,63.10 63.46,63.74 63.73,64.34 64.00,64.90 64.28,65.42 64.55,65.91 64.82,66.35 65.10,66.77 65.37,67.14 65.64,67.49 65.92,67.80 66.19,68.08 66.46,68.34 66.74,68.57 67.01,68.77 67.28,68.95 67.56,69.12 67.83,69.26 68.10,69.39 68.38,69.50 68.65,69.60 68.92,69.68 69.20,69.75 69.47,69.82 69.74,69.87 70.02,69.92 70.29,69.96 70.56,70.00 70.84,70.03 71.11,70.05 71.38,70.07 71.66,70.09 71.93,70.11" fill="none" stroke="#8fd7ca" stroke-width="3" stroke-linejoin="round" stroke-linecap="round"/>
  <polygon points="44.74,6.14 82.72,28.07 82.72,71.93 44.74,93.86 6.75,71.93 6.75,28.07 44.74,6.14" fill="none" stroke="#8fd7ca" stroke-width="4.2" stroke-linejoin="round"/>
</svg>

